<?xml version="1.0" encoding="UTF-8"?>
<svg id="Layer_2" data-name="Layer 2" xmlns="http://www.w3.org/2000/svg" viewBox="0 0 70.15 24.28">
  <defs>
    <style>
      .cls-1 {
        fill: #76a033;
      }

      .cls-2, .cls-3 {
        fill: #8cc63f;
      }

      .cls-4 {
        font-size: 11.65px;
      }

      .cls-3 {
        font-family: MongolianBaiti, 'Mongolian Baiti';
      }

      .cls-5 {
        font-family: MyriadPro-Regular, 'Myriad Pro';
        font-size: 6.99px;
      }

      .cls-6 {
        fill: none;
      }

      .cls-7 {
        fill: #0071bc;
        font-family: Amita-Regular, Amita;
      }
    </style>
  </defs>
  <g id="Layer_1-2" data-name="Layer 1">
    <g>
      <g>
        <text class="cls-5" transform="translate(20.88 20.88)"><tspan x="0" y="0">Find Your Career</tspan></text>
        <text class="cls-4" transform="translate(19.65 12.41)"><tspan class="cls-3" x="0" y="0">Init</tspan><tspan class="cls-7" x="16.17" y="0">Rabbit</tspan></text>
      </g>
      <g>
        <polygon class="cls-2" points="8.97 10.97 8.97 16.44 6.73 14.87 4.49 13.31 4.49 7.84 4.49 7.84 6.73 9.41 8.97 10.97"/>
        <path class="cls-2" d="M13.46,19.57v3.88c0,.67-.75,1.06-1.31,.68l-3.18-2.22v-5.47l4.49,3.13Z"/>
        <polygon class="cls-1" points="8.97 7.84 8.97 13.31 6.73 14.87 4.49 16.44 4.49 10.97 4.49 10.97 6.73 9.41 8.97 7.84"/>
        <path class="cls-1" d="M0,19.57v3.88c0,.67,.75,1.06,1.31,.68l3.18-2.22v-5.47S0,19.57,0,19.57Z"/>
        <path class="cls-2" d="M4.49,13.31v5.47l-1.68-1.17-1.39-.97C.58,16.05,.06,15.11,0,14.1c0-.06,0-.12,0-.18v-3.74H0s2.81,1.96,2.81,1.96h0s1.67,1.17,1.67,1.17Z"/>
        <path class="cls-1" d="M13.46,10.18v3.74c0,.06,0,.12,0,.18-.05,1.01-.57,1.95-1.41,2.54l-1.39,.97-1.68,1.17v-5.47l1.68-1.17,2.81-1.96Z"/>
        <polygon class="cls-6" points="4.49 10.98 4.49 13.31 2.81 12.14 4.49 10.98"/>
        <path class="cls-1" d="M4.49,7.84v3.13h0s-1.67,1.17-1.67,1.17L0,14.1c0-.06,0-.12,0-.18v-3.76C0,9.2,.47,8.31,1.26,7.76l1.55-1.08h0s1.67-1.17,1.67-1.17v2.34h0Z"/>
        <polygon class="cls-6" points="10.65 12.14 8.97 13.31 8.97 10.97 10.65 12.14"/>
        <path class="cls-2" d="M13.46,10.16v3.76c0,.06,0,.12,0,.18l-2.81-1.96-1.68-1.17V5.5l1.68,1.17,1.55,1.08c.79,.55,1.25,1.45,1.25,2.4Z"/>
        <path class="cls-2" d="M4.49,2.37V7.84l-1.67-1.17L0,4.71V.83C0,.16,.75-.23,1.31,.15l3.18,2.22Z"/>
        <path class="cls-1" d="M8.97,2.37V7.84s4.49-3.13,4.49-3.13V.83c0-.67-.75-1.06-1.31-.68l-3.18,2.22Z"/>
      </g>
    </g>
  </g>
</svg>